<svg width="46" height="46" viewBox="0 0 46 46" fill="none" xmlns="http://www.w3.org/2000/svg">
<path d="M23.4425 32.9606C22.0727 32.9606 20.7971 32.8151 19.6157 32.524C18.4514 32.2158 17.4925 31.7963 16.7391 31.2655C16.4481 31.043 16.234 30.8118 16.0971 30.5721C15.9772 30.3324 15.9173 30.0242 15.9173 29.6475C15.9173 29.1338 16.0714 28.6886 16.3796 28.312C16.6878 27.9353 17.0473 27.7469 17.4583 27.7469C17.6809 27.7469 17.8949 27.7812 18.1004 27.8497C18.3058 27.9181 18.5627 28.0466 18.8709 28.2349C19.5729 28.6287 20.2663 28.9112 20.9512 29.0825C21.6532 29.2537 22.4408 29.3393 23.3141 29.3393C24.3243 29.3393 25.0862 29.1938 25.5999 28.9027C26.1307 28.5945 26.3961 28.1493 26.3961 27.5671C26.3961 27.1733 26.1478 26.8394 25.6513 26.5655C25.1718 26.2744 24.2472 25.9919 22.8775 25.7179C21.1824 25.3584 19.8554 24.9303 18.8965 24.4338C17.9377 23.9372 17.2614 23.3551 16.8676 22.6873C16.4909 22.0024 16.3025 21.1806 16.3025 20.2217C16.3025 19.1259 16.6278 18.1328 17.2785 17.2424C17.9291 16.3521 18.8195 15.6586 19.9496 15.1621C21.0967 14.6484 22.3809 14.3916 23.8021 14.3916C25.052 14.3916 26.1649 14.5286 27.1409 14.8025C28.1169 15.0765 29.0072 15.5045 29.812 16.0867C30.1202 16.3093 30.3342 16.549 30.454 16.8058C30.591 17.0455 30.6595 17.3452 30.6595 17.7047C30.6595 18.2184 30.5054 18.6636 30.1972 19.0403C29.9061 19.417 29.5551 19.6053 29.1442 19.6053C28.9216 19.6053 28.7161 19.5796 28.5278 19.5283C28.3394 19.4598 28.0741 19.3228 27.7316 19.1173C27.646 19.066 27.3977 18.9375 26.9868 18.7321C26.593 18.5095 26.1221 18.3383 25.5742 18.2184C25.0434 18.0814 24.4613 18.0129 23.8277 18.0129C22.9545 18.0129 22.2525 18.1842 21.7217 18.5266C21.1909 18.8519 20.9255 19.2885 20.9255 19.8365C20.9255 20.1618 21.0197 20.4272 21.208 20.6326C21.3964 20.8381 21.7474 21.0436 22.2611 21.249C22.7747 21.4374 23.5367 21.6343 24.5469 21.8398C26.1906 22.1993 27.4833 22.6359 28.4251 23.1496C29.3668 23.6462 30.0345 24.2283 30.4284 24.8961C30.8222 25.5638 31.0191 26.3515 31.0191 27.2589C31.0191 28.389 30.7023 29.3907 30.0688 30.2639C29.4353 31.12 28.5449 31.7878 27.3977 32.2672C26.2677 32.7295 24.9492 32.9606 23.4425 32.9606Z" fill="white"/>
<path d="M43.3771 24.9424H2.875" stroke="white" stroke-width="2.875" stroke-linecap="round" stroke-linejoin="round"/>
<path d="M39.7712 16.824V13.0812C39.7712 9.57534 36.9039 6.70801 33.398 6.70801H30.2476" stroke="white" stroke-width="2.875" stroke-linecap="round" stroke-linejoin="round"/>
<path d="M6.48096 16.824V13.0732C6.48096 9.56129 9.3262 6.71403 12.8381 6.71002L16.0588 6.70801" stroke="white" stroke-width="2.875" stroke-linecap="round" stroke-linejoin="round"/>
<path d="M39.7712 24.9424V33.6267C39.7712 37.1306 36.9039 39.9999 33.398 39.9999H30.2476" stroke="white" stroke-width="2.875" stroke-linecap="round" stroke-linejoin="round"/>
<path d="M6.48096 24.9424V33.6347C6.48096 37.1466 9.3262 39.9939 12.8381 39.9979L16.0588 39.9999" stroke="white" stroke-width="2.875" stroke-linecap="round" stroke-linejoin="round"/>
</svg>
