<svg width="65" height="64" viewBox="0 0 65 64" fill="none" xmlns="http://www.w3.org/2000/svg">
<path d="M26.17 12.3347H24.889C22.095 12.3347 19.8296 14.6001 19.8296 17.3942V24.0874C19.8296 26.8801 22.095 29.1455 24.889 29.1455H40.1703C42.9643 29.1455 45.2297 26.8801 45.2297 24.0874V17.3804C45.2297 14.5947 42.9712 12.3347 40.1854 12.3347H38.8907" stroke="#5860F3" stroke-width="2.05947" stroke-linecap="round" stroke-linejoin="round"/>
<path d="M32.5298 3.00749V19.5396" stroke="#5860F3" stroke-width="2.05947" stroke-linecap="round" stroke-linejoin="round"/>
<path d="M28.5273 7.02783L32.5296 3.00774L36.5332 7.02783" stroke="#5860F3" stroke-width="2.05947" stroke-linecap="round" stroke-linejoin="round"/>
<path d="M3.204 44.2437V51.7857C3.204 52.9137 3.45 53.7537 3.942 54.3057C4.446 54.8577 5.148 55.1337 6.048 55.1337C6.936 55.1337 7.626 54.8577 8.118 54.3057C8.622 53.7537 8.874 52.9137 8.874 51.7857V44.2437H10.926V51.7857C10.926 53.5257 10.476 54.8457 9.576 55.7457C8.676 56.6337 7.488 57.0777 6.012 57.0777C4.548 57.0777 3.372 56.6337 2.484 55.7457C1.596 54.8457 1.152 53.5257 1.152 51.7857V44.2437H3.204ZM19.0062 46.9077C19.8702 46.9077 20.6382 47.1117 21.3102 47.5197C21.9942 47.9277 22.5282 48.5157 22.9122 49.2837C23.2962 50.0517 23.4882 50.9517 23.4882 51.9837C23.4882 53.0277 23.2962 53.9337 22.9122 54.7017C22.5282 55.4697 21.9942 56.0577 21.3102 56.4657C20.6382 56.8737 19.8702 57.0777 19.0062 57.0777C18.1062 57.0777 17.3382 56.8557 16.7022 56.4117C16.0662 55.9677 15.6222 55.3797 15.3702 54.6477V61.6677H13.3182V47.0337H15.3702V49.3377C15.6222 48.6057 16.0662 48.0177 16.7022 47.5737C17.3382 47.1297 18.1062 46.9077 19.0062 46.9077ZM18.3762 48.7077C17.8002 48.7077 17.2842 48.8457 16.8282 49.1217C16.3722 49.3857 16.0122 49.7697 15.7482 50.2737C15.4842 50.7657 15.3522 51.3357 15.3522 51.9837C15.3522 52.6437 15.4842 53.2197 15.7482 53.7117C16.0122 54.2037 16.3722 54.5877 16.8282 54.8637C17.2842 55.1277 17.8002 55.2597 18.3762 55.2597C19.2882 55.2597 20.0202 54.9717 20.5722 54.3957C21.1242 53.8077 21.4002 53.0037 21.4002 51.9837C21.4002 50.9757 21.1242 50.1777 20.5722 49.5897C20.0202 49.0017 19.2882 48.7077 18.3762 48.7077ZM27.5167 43.6317V56.9517H25.4647V43.6317H27.5167ZM34.5358 46.9077C35.4958 46.9077 36.3598 47.1117 37.1278 47.5197C37.8958 47.9277 38.4958 48.5157 38.9278 49.2837C39.3598 50.0517 39.5758 50.9517 39.5758 51.9837C39.5758 53.0277 39.3598 53.9337 38.9278 54.7017C38.4958 55.4697 37.8958 56.0577 37.1278 56.4657C36.3598 56.8737 35.4958 57.0777 34.5358 57.0777C33.5758 57.0777 32.7118 56.8737 31.9438 56.4657C31.1878 56.0577 30.5878 55.4697 30.1438 54.7017C29.7118 53.9217 29.4958 53.0157 29.4958 51.9837C29.4958 50.9517 29.7118 50.0517 30.1438 49.2837C30.5878 48.5157 31.1878 47.9277 31.9438 47.5197C32.7118 47.1117 33.5758 46.9077 34.5358 46.9077ZM34.5358 48.6897C34.0078 48.6897 33.5218 48.8097 33.0778 49.0497C32.6338 49.2897 32.2738 49.6617 31.9978 50.1657C31.7338 50.6577 31.6018 51.2637 31.6018 51.9837C31.6018 52.7157 31.7338 53.3277 31.9978 53.8197C32.2738 54.3117 32.6338 54.6777 33.0778 54.9177C33.5218 55.1577 34.0078 55.2777 34.5358 55.2777C35.0638 55.2777 35.5498 55.1577 35.9938 54.9177C36.4378 54.6777 36.7918 54.3117 37.0558 53.8197C37.3318 53.3277 37.4698 52.7157 37.4698 51.9837C37.4698 51.2637 37.3318 50.6577 37.0558 50.1657C36.7918 49.6617 36.4378 49.2897 35.9938 49.0497C35.5498 48.8097 35.0638 48.6897 34.5358 48.6897ZM45.5266 46.9077C46.4266 46.9077 47.1946 47.1297 47.8306 47.5737C48.4666 48.0177 48.9166 48.6057 49.1806 49.3377V47.0337H51.2326V56.9517H49.1806V54.6477C48.9166 55.3797 48.4666 55.9677 47.8306 56.4117C47.1946 56.8557 46.4266 57.0777 45.5266 57.0777C44.6626 57.0777 43.8886 56.8737 43.2046 56.4657C42.5326 56.0577 42.0046 55.4697 41.6206 54.7017C41.2366 53.9337 41.0446 53.0277 41.0446 51.9837C41.0446 50.9517 41.2366 50.0517 41.6206 49.2837C42.0046 48.5157 42.5326 47.9277 43.2046 47.5197C43.8886 47.1117 44.6626 46.9077 45.5266 46.9077ZM46.1566 48.7077C45.2446 48.7077 44.5126 49.0017 43.9606 49.5897C43.4206 50.1657 43.1506 50.9637 43.1506 51.9837C43.1506 53.0037 43.4206 53.8077 43.9606 54.3957C44.5126 54.9717 45.2446 55.2597 46.1566 55.2597C46.7326 55.2597 47.2486 55.1277 47.7046 54.8637C48.1606 54.5877 48.5206 54.2037 48.7846 53.7117C49.0486 53.2197 49.1806 52.6437 49.1806 51.9837C49.1806 51.3357 49.0486 50.7657 48.7846 50.2737C48.5206 49.7697 48.1606 49.3857 47.7046 49.1217C47.2486 48.8457 46.7326 48.7077 46.1566 48.7077ZM57.6731 46.9077C58.5731 46.9077 59.3411 47.1297 59.9771 47.5737C60.6131 48.0177 61.0571 48.6057 61.3091 49.3377V43.6317H63.3791V56.9517H61.3091V54.6477C61.0571 55.3797 60.6131 55.9677 59.9771 56.4117C59.3411 56.8557 58.5731 57.0777 57.6731 57.0777C56.8091 57.0777 56.0351 56.8737 55.3511 56.4657C54.6791 56.0577 54.1511 55.4697 53.7671 54.7017C53.3831 53.9337 53.1911 53.0277 53.1911 51.9837C53.1911 50.9517 53.3831 50.0517 53.7671 49.2837C54.1511 48.5157 54.6791 47.9277 55.3511 47.5197C56.0351 47.1117 56.8091 46.9077 57.6731 46.9077ZM58.3031 48.7077C57.3911 48.7077 56.6591 49.0017 56.1071 49.5897C55.5671 50.1657 55.2971 50.9637 55.2971 51.9837C55.2971 53.0037 55.5671 53.8077 56.1071 54.3957C56.6591 54.9717 57.3911 55.2597 58.3031 55.2597C58.8791 55.2597 59.3951 55.1277 59.8511 54.8637C60.3071 54.5877 60.6671 54.2037 60.9311 53.7117C61.1951 53.2197 61.3271 52.6437 61.3271 51.9837C61.3271 51.3357 61.1951 50.7657 60.9311 50.2737C60.6671 49.7697 60.3071 49.3857 59.8511 49.1217C59.3951 48.8457 58.8791 48.7077 58.3031 48.7077Z" fill="#5860F3"/>
</svg>
